<svg width="12" height="20" viewBox="0 0 12 20" fill="none" xmlns="http://www.w3.org/2000/svg">
<path d="M0.290039 9.99896C0.290039 10.3808 0.436035 10.7065 0.739258 10.9985L9.49902 19.5673C9.73486 19.8144 10.0493 19.9379 10.4087 19.9379C11.1387 19.9379 11.7114 19.3764 11.7114 18.6352C11.7114 18.2758 11.5654 17.9501 11.3184 17.7031L3.42334 9.99896L11.3184 2.29486C11.5654 2.03656 11.7114 1.71088 11.7114 1.3515C11.7114 0.621521 11.1387 0.0599976 10.4087 0.0599976C10.0493 0.0599976 9.73486 0.183533 9.49902 0.430603L0.739258 8.99945C0.436035 9.29144 0.30127 9.61713 0.290039 9.99896Z" fill="black"/>
</svg>
