<svg width="20" height="20" viewBox="0 0 20 20" fill="none" xmlns="http://www.w3.org/2000/svg">
<path d="M5.83334 11.6667H10.8542C11.0903 11.6667 11.2847 11.5867 11.4375 11.4267C11.5903 11.2672 11.6667 11.0695 11.6667 10.8334C11.6667 10.5972 11.5869 10.3992 11.4275 10.2392C11.2675 10.0797 11.0694 10 10.8333 10H5.8125C5.57639 10 5.38195 10.0797 5.22917 10.2392C5.07639 10.3992 5.00001 10.5972 5.00001 10.8334C5.00001 11.0695 5.07973 11.2672 5.23917 11.4267C5.39917 11.5867 5.59723 11.6667 5.83334 11.6667ZM5.83334 9.16669H14.1875C14.4236 9.16669 14.6181 9.08669 14.7708 8.92669C14.9236 8.76724 15 8.56946 15 8.33335C15 8.09724 14.92 7.89919 14.76 7.73919C14.6006 7.57974 14.4028 7.50002 14.1667 7.50002H5.8125C5.57639 7.50002 5.38195 7.57974 5.22917 7.73919C5.07639 7.89919 5.00001 8.09724 5.00001 8.33335C5.00001 8.56946 5.07973 8.76724 5.23917 8.92669C5.39917 9.08669 5.59723 9.16669 5.83334 9.16669ZM5.83334 6.66669H14.1875C14.4236 6.66669 14.6181 6.58696 14.7708 6.42752C14.9236 6.26752 15 6.06946 15 5.83335C15 5.59724 14.92 5.39919 14.76 5.23919C14.6006 5.07974 14.4028 5.00002 14.1667 5.00002H5.8125C5.57639 5.00002 5.38195 5.07974 5.22917 5.23919C5.07639 5.39919 5.00001 5.59724 5.00001 5.83335C5.00001 6.06946 5.07973 6.26752 5.23917 6.42752C5.39917 6.58696 5.59723 6.66669 5.83334 6.66669ZM1.66667 16.3125V3.33335C1.66667 2.87502 1.83001 2.48252 2.15667 2.15585C2.48278 1.82974 2.87501 1.66669 3.33334 1.66669H16.6667C17.125 1.66669 17.5175 1.82974 17.8442 2.15585C18.1703 2.48252 18.3333 2.87502 18.3333 3.33335V13.3334C18.3333 13.7917 18.1703 14.1842 17.8442 14.5109C17.5175 14.837 17.125 15 16.6667 15H5.00001L3.08334 16.9167C2.81945 17.1806 2.51723 17.2395 2.17667 17.0934C1.83667 16.9478 1.66667 16.6875 1.66667 16.3125Z" fill="black"/>
</svg>
