<svg width="30" height="30" viewBox="0 0 30 30" fill="none" xmlns="http://www.w3.org/2000/svg">
<path d="M23.75 7.5C22.7083 7.5 21.8229 7.13542 21.0937 6.40625C20.3646 5.67708 20 4.79167 20 3.75C20 2.70833 20.3646 1.82292 21.0937 1.09375C21.8229 0.364583 22.7083 0 23.75 0C24.7917 0 25.6771 0.364583 26.4062 1.09375C27.1354 1.82292 27.5 2.70833 27.5 3.75C27.5 4.79167 27.1354 5.67708 26.4062 6.40625C25.6771 7.13542 24.7917 7.5 23.75 7.5ZM2.5 27.5V5C2.5 4.3125 2.745 3.72375 3.235 3.23375C3.72417 2.74458 4.3125 2.5 5 2.5H17.625C17.5417 2.91667 17.5 3.33333 17.5 3.75C17.5 4.16667 17.5417 4.58333 17.625 5C17.7292 5.47917 17.875 5.92708 18.0625 6.34375C18.25 6.76042 18.4792 7.14583 18.75 7.5H7.5V10H23.75C24.4167 10 25.0729 9.89583 25.7187 9.6875C26.3646 9.47917 26.9583 9.16667 27.5 8.75V20C27.5 20.6875 27.2554 21.2763 26.7662 21.7663C26.2762 22.2554 25.6875 22.5 25 22.5H7.5L2.5 27.5ZM7.5 13.75H22.5V11.25H7.5V13.75ZM7.5 17.5H17.5V15H7.5V17.5Z" fill="black"/>
</svg>
