<svg width="51" height="51" viewBox="0 0 51 51" fill="none" xmlns="http://www.w3.org/2000/svg">
<path d="M44.625 14.3438V44.625C44.625 46.3158 43.9534 47.9373 42.7578 49.1328C41.5623 50.3284 39.9408 51 38.25 51H12.75C11.0592 51 9.43774 50.3284 8.24219 49.1328C7.04665 47.9373 6.375 46.3158 6.375 44.625V6.375C6.375 4.68424 7.04665 3.06274 8.24219 1.86719C9.43774 0.67165 11.0592 0 12.75 0L30.2812 0L44.625 14.3438ZM35.0625 14.3438C33.7944 14.3438 32.5783 13.84 31.6816 12.9434C30.785 12.0467 30.2812 10.8306 30.2812 9.5625V3.1875H12.75C11.9046 3.1875 11.0939 3.52332 10.4961 4.1211C9.89832 4.71887 9.5625 5.52962 9.5625 6.375V44.625C9.5625 45.4704 9.89832 46.2811 10.4961 46.8789C11.0939 47.4767 11.9046 47.8125 12.75 47.8125H38.25C39.0954 47.8125 39.9061 47.4767 40.5039 46.8789C41.1017 46.2811 41.4375 45.4704 41.4375 44.625V14.3438H35.0625Z" fill="black"/>
</svg>
