<svg width="30" height="30" viewBox="0 0 30 30" fill="none" xmlns="http://www.w3.org/2000/svg">
<path d="M6.5625 6.25C5.48506 6.25 4.45175 6.67801 3.68988 7.43988C2.92801 8.20175 2.5 9.23506 2.5 10.3125V11.875H27.5V10.3125C27.5 9.779 27.3949 9.25073 27.1908 8.75785C26.9866 8.26496 26.6874 7.81712 26.3101 7.43988C25.9329 7.06264 25.485 6.7634 24.9922 6.55924C24.4993 6.35508 23.971 6.25 23.4375 6.25H6.5625ZM27.5 13.75H2.5V19.6875C2.5 20.7649 2.92801 21.7983 3.68988 22.5601C4.45175 23.322 5.48506 23.75 6.5625 23.75H23.4375C23.971 23.75 24.4993 23.6449 24.9922 23.4408C25.485 23.2366 25.9329 22.9374 26.3101 22.5601C26.6874 22.1829 26.9866 21.735 27.1908 21.2422C27.3949 20.7493 27.5 20.221 27.5 19.6875V13.75ZM19.6875 18.125H22.8125C23.0611 18.125 23.2996 18.2238 23.4754 18.3996C23.6512 18.5754 23.75 18.8139 23.75 19.0625C23.75 19.3111 23.6512 19.5496 23.4754 19.7254C23.2996 19.9012 23.0611 20 22.8125 20H19.6875C19.4389 20 19.2004 19.9012 19.0246 19.7254C18.8488 19.5496 18.75 19.3111 18.75 19.0625C18.75 18.8139 18.8488 18.5754 19.0246 18.3996C19.2004 18.2238 19.4389 18.125 19.6875 18.125Z" fill="black"/>
</svg>
