<?xml version="1.0" standalone="no"?>
<!DOCTYPE svg PUBLIC "-//W3C//DTD SVG 20010904//EN"
 "http://www.w3.org/TR/2001/REC-SVG-20010904/DTD/svg10.dtd">
<svg version="1.0" xmlns="http://www.w3.org/2000/svg"
 width="512.000000pt" height="512.000000pt" viewBox="0 0 512.000000 512.000000"
 preserveAspectRatio="xMidYMid meet">

<g transform="translate(0.000000,512.000000) scale(0.100000,-0.100000)"
fill="#000000" stroke="none">
<path d="M2440 5110 c-458 -47 -849 -340 -1022 -764 -78 -190 -108 -453 -74
-657 63 -385 305 -719 654 -902 117 -62 342 -127 436 -127 l36 0 2 -1300 3
-1300 26 -25 c35 -36 82 -36 117 -1 l27 26 3 1300 2 1300 36 0 c94 0 319 65
436 127 349 183 591 517 654 902 23 138 14 352 -19 486 -105 417 -406 743
-810 878 -149 50 -353 73 -507 57z m-196 -648 c80 -44 136 -139 136 -231 0
-93 -79 -200 -173 -236 -56 -21 -155 -17 -205 9 -80 41 -133 124 -140 219 -15
203 200 338 382 239z"/>
</g>
</svg>
