<svg width="18" height="18" viewBox="0 0 18 18" fill="none" xmlns="http://www.w3.org/2000/svg">
<path d="M10.1761 3.09544V15.3281C10.1761 15.4054 10.2375 15.4687 10.3125 15.4687H11.3352C11.4102 15.4687 11.4716 15.4054 11.4716 15.3281V4.68977L14.5909 7.2263C14.6795 7.29837 14.8125 7.23333 14.8125 7.11555V5.84114C14.8125 5.75501 14.775 5.67415 14.7085 5.61966L11.0591 2.65247C10.7011 2.36243 10.1761 2.62434 10.1761 3.09544ZM6.15339 2.67181L6.15339 13.3101L3.03408 10.7736C2.94544 10.7015 2.81248 10.7665 2.81248 10.8843L2.81248 12.1587C2.81248 12.2449 2.84998 12.3257 2.91646 12.3802L6.56589 15.3474C6.92385 15.6374 7.44885 15.3755 7.44885 14.9062L7.44885 2.67181C7.44885 2.59446 7.38749 2.53118 7.31248 2.53118H6.28976C6.21476 2.53118 6.15339 2.59446 6.15339 2.67181Z" fill="white"/>
</svg>
